<svg xmlns="http://www.w3.org/2000/svg" viewBox="7504 125 24 24">
  <defs>
    <style>
      .cls-1 {
        fill: #00bf9e;
      }
    </style>
  </defs>
  <path id="Path_119" data-name="Path 119" class="cls-1" d="M20.5,3.5A11.869,11.869,0,0,0,12,0,11.95,11.95,0,0,0,0,12a11.869,11.869,0,0,0,3.5,8.5A12.3,12.3,0,0,0,12,24h0A11.95,11.95,0,0,0,24,12,12.3,12.3,0,0,0,20.5,3.5ZM4.2,4.2A10.8,10.8,0,0,1,12,1a10.6,10.6,0,0,1,7.4,2.9L3.9,19.4A10.6,10.6,0,0,1,1,12,10.8,10.8,0,0,1,4.2,4.2ZM19.8,19.8A10.968,10.968,0,0,1,12,23h0a10.6,10.6,0,0,1-7.4-2.9L20.1,4.6A10.6,10.6,0,0,1,23,12,10.968,10.968,0,0,1,19.8,19.8Z" transform="translate(7504 125)"/>
</svg>
