<svg xmlns="http://www.w3.org/2000/svg" viewBox="7349 125 19.259 24">
  <defs>
    <style>
      .cls-1 {
        fill: #00bf9e;
      }
    </style>
  </defs>
  <g id="Group_1025" data-name="Group 1025" transform="translate(7349 125)">
    <path id="Path_187" data-name="Path 187" class="cls-1" d="M18.864,3.654,15.506.3a1.593,1.593,0,0,0-.889-.3H1.284A1.307,1.307,0,0,0,0,1.284V22.716A1.307,1.307,0,0,0,1.284,24H17.975a1.307,1.307,0,0,0,1.284-1.284V4.642A1.755,1.755,0,0,0,18.864,3.654Zm-.988.494H15.012V1.383Zm.1,18.963H1.284c-.2,0-.3-.2-.3-.4V1.284a.262.262,0,0,1,.3-.3h12.84V4.642a.467.467,0,0,0,.494.494h3.654v17.58C18.272,22.914,18.173,23.111,17.975,23.111Z" transform="translate(0 0)"/>
    <path id="Path_188" data-name="Path 188" class="cls-1" d="M10.34,12.12V7.675a5.165,5.165,0,0,1,2.272.988.594.594,0,0,0,.4.1.553.553,0,0,0,.593-.494c0-.2-.1-.3-.3-.494a5.576,5.576,0,0,0-2.864-1.185v-.4a.494.494,0,0,0-.988,0v.494c-1.975.1-3.457,1.383-3.457,3.062s1.086,2.667,3.457,3.16v4.444a4.98,4.98,0,0,1-3.062-1.481.69.69,0,0,0-.4-.2.529.529,0,0,0-.494.494c0,.2.1.4.2.4a5.834,5.834,0,0,0,3.654,1.58V19.33a.494.494,0,0,0,.988,0V18.144c2.074-.1,3.556-1.383,3.556-3.16C13.9,13.6,12.809,12.614,10.34,12.12Zm2.469,3.259a2.2,2.2,0,0,1-2.469,2.074V13.206C12.414,13.7,12.809,14.391,12.809,15.379Zm-3.457-7.7v4.247c-1.975-.494-2.37-1.185-2.37-2.173C6.981,8.564,7.969,7.774,9.352,7.675Z" transform="translate(-0.068 -0.07)"/>
  </g>
</svg>
