<svg xmlns="http://www.w3.org/2000/svg" viewBox="8735 125 19.645 24"><defs><style>.a{fill:#3ae5c4;}</style></defs><g transform="translate(8735 125)"><path class="a" d="M15.559,15.9H6.3a.5.5,0,0,0,0,1H15.46a.47.47,0,0,0,.5-.5A.4.4,0,0,0,15.559,15.9Z" transform="translate(-0.024 -0.066)"/><path class="a" d="M15.559,12.9H6.3a.5.5,0,1,0,0,1H15.46a.47.47,0,0,0,.5-.5A.4.4,0,0,0,15.559,12.9Z" transform="translate(-0.024 -0.054)"/><path class="a" d="M15.559,9.8H6.3a.5.5,0,1,0,0,1H15.46a.47.47,0,0,0,.5-.5C16.057,10.1,15.759,9.8,15.559,9.8Z" transform="translate(-0.024 -0.041)"/><path class="a" d="M6.3,7.8H10.48a.5.5,0,1,0,0-1H6.3a.5.5,0,0,0,0,1Z" transform="translate(-0.024 -0.028)"/><path class="a" d="M19.329,3.286,16.342.3a1.131,1.131,0,0,0-.8-.3H3.6A1.211,1.211,0,0,0,2.4,1.2v19.12a1.151,1.151,0,0,0,1.2,1.2H18.433a1.151,1.151,0,0,0,1.2-1.2V4.183A1,1,0,0,0,19.329,3.286Zm-1,.4h-2.29V1.394Zm.2,16.83H3.6a.214.214,0,0,1-.2-.2V1.2A.214.214,0,0,1,3.6,1H14.948V4.183a.47.47,0,0,0,.5.5h3.187V20.415C18.732,20.415,18.632,20.515,18.533,20.515Z" transform="translate(-0.01 0)"/><path class="a" d="M16.73,22.317a.47.47,0,0,0-.5.5c0,.1-.1.3-.2.3H1.2a.517.517,0,0,1-.2-.4V3.595c0-.1.1-.2.3-.2a.47.47,0,0,0,.5-.5.47.47,0,0,0-.5-.5A1.176,1.176,0,0,0,0,3.595v19.22a1.211,1.211,0,0,0,1.2,1.2H16.033a1.211,1.211,0,0,0,1.2-1.2A.47.47,0,0,0,16.73,22.317Z" transform="translate(0 -0.01)"/></g></svg>