<svg xmlns="http://www.w3.org/2000/svg" viewBox="7815 109 24.52 24">
  <defs>
    <style>
      .cls-1 {
        fill: #029b76;
      }
    </style>
  </defs>
  <g id="Group_356" data-name="Group 356" transform="translate(7815 109)">
    <path id="Path_113" data-name="Path 113" class="cls-1" d="M16.241,0H8.379C3.724,0,0,4.034,0,9.1A8.884,8.884,0,0,0,6.414,17.9v5.69c0,.207.1.414.31.414h.207a.38.38,0,0,0,.31-.1L13.862,18h2.276c4.552,0,8.379-4.034,8.379-9.1A8.514,8.514,0,0,0,16.241,0Zm0,17.172H13.759a.38.38,0,0,0-.31.1l-6,5.276V17.586a.687.687,0,0,0-.414-.517,7.878,7.878,0,0,1-6-7.966c0-4.448,3.31-8.069,7.345-8.069h7.966c4.034,0,7.345,3.621,7.345,8.069C23.586,13.552,20.276,17.172,16.241,17.172Z"/>
    <path id="Path_114" data-name="Path 114" class="cls-1" d="M18,5.4H6.617a.517.517,0,0,0,0,1.034H18a.489.489,0,0,0,.517-.517C18.41,5.71,18.2,5.4,18,5.4Z" transform="translate(0.21 0.186)"/>
    <path id="Path_115" data-name="Path 115" class="cls-1" d="M18,8.7H6.617a.517.517,0,1,0,0,1.034H18a.489.489,0,0,0,.517-.517C18.41,8.907,18.2,8.7,18,8.7Z" transform="translate(0.21 0.3)"/>
    <path id="Path_116" data-name="Path 116" class="cls-1" d="M12.2,11.9H6.617a.517.517,0,0,0,0,1.034H12.2a.489.489,0,0,0,.517-.517A.554.554,0,0,0,12.2,11.9Z" transform="translate(0.21 0.41)"/>
  </g>
</svg>
