<svg xmlns="http://www.w3.org/2000/svg" viewBox="0 0 24.09 21.35"><defs><style>.cls-1{fill:#00bf9e;}</style></defs><title>icon_plan</title><g id="Layer_2" data-name="Layer 2"><g id="icon"><path class="cls-1" d="M22.65,3.3H21.22L20.6.39A.49.49,0,0,0,20,0L6.57,2.74C5.74.88,5.23.88,5,.88H1.44A1.44,1.44,0,0,0,0,2.32V19.91a1.45,1.45,0,0,0,1.44,1.44H22.65a1.45,1.45,0,0,0,1.44-1.44V4.74A1.44,1.44,0,0,0,22.65,3.3ZM19.74,1.06l.48,2.24.2,1,.5,2.34H3.63L3.17,4.42Zm2.91,3.21a.47.47,0,0,1,.46.47V6.61H21.92l-.5-2.34ZM1.44,1.85h3.5a4.93,4.93,0,0,1,.64,1.09l-3.09.62a.49.49,0,0,0-.38.58l.52,2.47H1V2.32A.46.46,0,0,1,1.44,1.85ZM22.65,20.37H1.44A.46.46,0,0,1,1,19.91V7.59H23.11V19.91A.47.47,0,0,1,22.65,20.37Z"/></g></g></svg>