<svg xmlns="http://www.w3.org/2000/svg" viewBox="7033 125 24.615 24">
  <defs>
    <style>
      .cls-1 {
        fill: #fff;
      }
    </style>
  </defs>
  <g id="Group_1024" data-name="Group 1024" transform="translate(7033 125)">
    <path id="Path_182" data-name="Path 182" class="cls-1" d="M6.41,9.744H17.9a.485.485,0,0,0,.513-.513V.513C18.513.205,18.308,0,18,0H6.41A.469.469,0,0,0,6,.513V9.231A.469.469,0,0,0,6.41,9.744Zm.513-8.718H17.487V8.821H6.923Z" transform="translate(0.154 0)"/>
    <path id="Path_183" data-name="Path 183" class="cls-1" d="M6.051,18.2H.513A.484.484,0,0,0,0,18.713v4.308a.484.484,0,0,0,.513.513H6.051a.484.484,0,0,0,.513-.513V18.713A.549.549,0,0,0,6.051,18.2Zm-.513,4.308H1.026V19.226H5.538Z" transform="translate(0 0.467)"/>
    <path id="Path_184" data-name="Path 184" class="cls-1" d="M14.851,18.2H9.313a.484.484,0,0,0-.513.513v4.308a.484.484,0,0,0,.513.513h5.538a.484.484,0,0,0,.513-.513V18.713A.549.549,0,0,0,14.851,18.2Zm-.513,4.308H9.826V19.226h4.513v3.282Z" transform="translate(0.226 0.467)"/>
    <path id="Path_185" data-name="Path 185" class="cls-1" d="M23.651,18.2H18.113a.485.485,0,0,0-.513.513v4.308a.485.485,0,0,0,.513.513h5.538a.485.485,0,0,0,.513-.513V18.713A.549.549,0,0,0,23.651,18.2Zm-.41,4.308H18.728V19.226h4.513Z" transform="translate(0.451 0.467)"/>
    <path id="Path_186" data-name="Path 186" class="cls-1" d="M2.913,16.744a.484.484,0,0,0,.513-.513V14.385h8.41v1.846a.513.513,0,1,0,1.026,0V14.385h8.308v1.846a.513.513,0,1,0,1.026,0V13.974a.484.484,0,0,0-.513-.513H12.862V11.513a.513.513,0,0,0-1.026,0v1.949H2.913a.484.484,0,0,0-.513.513v2.256A.549.549,0,0,0,2.913,16.744Z" transform="translate(0.062 0.282)"/>
  </g>
</svg>
