<svg xmlns="http://www.w3.org/2000/svg" viewBox="6883 158 24.284 24">
  <defs>
    <style>
      .cls-1 {
        fill: #00bf9e;
      }
    </style>
  </defs>
  <g id="money-rotate-7_1_" transform="translate(6883 157.995)">
    <path id="Path_108" data-name="Path 108" class="cls-1" d="M10.124,16.554A3.509,3.509,0,0,1,9.3,14.08H8.2A4.167,4.167,0,0,0,9.3,17.2a5.092,5.092,0,0,0,2.932,1.191v2.108h.916V18.479a8.07,8.07,0,0,0,1.558-.183,4.789,4.789,0,0,0,1.375-.641,2.694,2.694,0,0,0,.916-1.1,2.689,2.689,0,0,0,.367-1.466A2.325,2.325,0,0,0,17,13.622a3.517,3.517,0,0,0-1.008-1.008,4.789,4.789,0,0,0-1.375-.641,9.587,9.587,0,0,0-1.558-.367V6.474a2.625,2.625,0,0,1,1.924.733,4.258,4.258,0,0,1,.825,2.2h1.1a4.793,4.793,0,0,0-.275-1.649,3.487,3.487,0,0,0-.825-1.191,3.6,3.6,0,0,0-1.283-.733,4.15,4.15,0,0,0-1.466-.275V4H12.14V5.649a5.408,5.408,0,0,0-1.283.183,3.658,3.658,0,0,0-1.191.641,3.161,3.161,0,0,0-.825,1.1,3.677,3.677,0,0,0-.275,1.375,3.213,3.213,0,0,0,.275,1.466,2.865,2.865,0,0,0,.825,1.008,4.937,4.937,0,0,0,1.191.641c.458.092.825.275,1.283.367v5.132A4.653,4.653,0,0,1,10.124,16.554Zm3.024-4.032,1.1.275a3.388,3.388,0,0,1,1.008.458,2.47,2.47,0,0,1,.733.641,1.847,1.847,0,0,1,.275,1.008,2.537,2.537,0,0,1-.275,1.191,2.969,2.969,0,0,1-.733.825,3.387,3.387,0,0,1-1.008.458,4.461,4.461,0,0,1-1.1.092Zm-1.741-1.466a1.727,1.727,0,0,1-.825-.367,2.141,2.141,0,0,1-.641-.641,1.548,1.548,0,0,1-.275-.916A4.643,4.643,0,0,1,9.849,7.94a6.431,6.431,0,0,1,.55-.825,4.911,4.911,0,0,1,1.008-.458,2.537,2.537,0,0,1,.825-.092v4.765Z" transform="translate(-0.686 -0.334)"/>
    <path id="Path_109" data-name="Path 109" class="cls-1" d="M21.07,15.487l-.458,4.582,4.124-1.924-1.558-1.1A12.2,12.2,0,0,0,20.887,3.483,11.984,11.984,0,0,0,5.4,2.291l.641.641A10.976,10.976,0,0,1,22.353,16.5Z" transform="translate(-0.452 0)"/>
    <path id="Path_110" data-name="Path 110" class="cls-1" d="M3.849,20.886a11.984,11.984,0,0,0,15.487,1.191l-.641-.641A10.976,10.976,0,0,1,2.383,7.874L3.849,8.882,4.307,4.3,0,6.224l1.558,1.1A11.885,11.885,0,0,0,3.849,20.886Z" transform="translate(0 -0.359)"/>
  </g>
</svg>
